<svg width="49" height="48" viewBox="0 0 49 48" fill="none" xmlns="http://www.w3.org/2000/svg">
<path d="M31.1324 23.4313C30.7754 23.4313 30.4439 23.3254 30.1494 23.155V23.1596C30.1494 23.7657 29.9311 24.3349 29.5349 24.7613C29.1388 25.1887 28.6117 25.4243 28.0506 25.4243C27.6883 25.4243 27.3526 25.3158 27.055 25.1409C27.025 25.6954 26.8195 26.2137 26.4531 26.6095C26.0569 27.037 25.5298 27.2726 24.9684 27.2726C23.8529 27.2726 22.9471 26.3264 22.8818 25.1405C22.5367 25.3418 22.1465 25.4473 21.744 25.4194C20.6467 25.3418 19.7874 24.3187 19.7874 23.0898V12.9032L18.7125 14.9127C18.3031 15.6813 17.5367 16.1585 16.7115 16.1585C16.3094 16.1585 15.9122 16.0447 15.5605 15.8272C15.1224 15.5531 14.8091 15.1132 14.6788 14.587C14.5478 14.0604 14.6155 13.5096 14.8688 13.0376C14.8691 13.0376 18.3859 6.46612 18.6004 6.06246C18.6259 6.00177 18.6986 5.82573 18.7604 5.6757C18.8194 5.53246 18.8701 5.38545 18.9186 5.23768C19.9792 2.00683 22.6052 -0.000102993 25.7722 -0.000102993C29.8849 -0.000102993 33.2307 3.91494 33.2307 8.72724L33.2311 21.1662C33.2311 21.7716 33.0131 22.3404 32.6173 22.7683C32.2212 23.1958 31.6941 23.4314 31.1324 23.4314L31.1324 23.4313ZM25.7722 1.20333C23.0509 1.20333 20.8819 2.86198 19.9698 5.64015C19.9115 5.81656 19.8507 5.99297 19.7798 6.16487C19.574 6.66283 19.574 6.66283 19.516 6.73445L19.5084 6.72728C19.2212 7.31194 18.3681 8.90608 15.8344 13.6399C15.7303 13.8341 15.7027 14.0595 15.7558 14.2751C15.8096 14.4907 15.9385 14.6724 16.117 14.7836C16.6711 15.127 17.4299 14.9054 17.7456 14.3117L19.8622 10.3573C19.9887 10.1218 20.2444 10.006 20.4896 10.0777C20.7335 10.1481 20.9029 10.3868 20.9029 10.6589V23.0902C20.9029 23.6767 21.313 24.1829 21.8171 24.2187C22.1078 24.2353 22.3788 24.1302 22.5825 23.9108C22.7677 23.711 22.8697 23.4448 22.8697 23.1602V15.03C22.8697 14.6976 23.1194 14.428 23.4275 14.428C23.7357 14.428 23.9854 14.6972 23.9854 15.03L23.9851 25.0082C23.9851 25.5933 24.4263 26.0694 24.9684 26.0694C25.2318 26.0694 25.4792 25.9593 25.6647 25.7595C25.8498 25.5593 25.9518 25.2925 25.9518 25.0082V15.03C25.9518 14.6976 26.2012 14.428 26.5097 14.428C26.8178 14.428 27.0676 14.6972 27.0676 15.03L27.0672 23.0667V23.1602C27.0672 23.7449 27.5084 24.221 28.0509 24.221C28.314 24.221 28.5606 24.1105 28.7472 23.91C28.9323 23.7105 29.0343 23.4444 29.0343 23.1598V15.0296C29.0343 14.6971 29.2837 14.4276 29.5922 14.4276C29.9003 14.4276 30.1501 14.6968 30.1501 15.0296L30.1494 21.1665C30.1494 21.7519 30.5906 22.228 31.1324 22.228C31.3961 22.228 31.6428 22.1176 31.8279 21.9182C32.0137 21.7176 32.1154 21.4507 32.1154 21.1665L32.1157 8.72753C32.1157 4.57915 29.2701 1.20345 25.7722 1.20345L25.7722 1.20333Z" fill="#4CAF4F"/>
<path d="M9.21363 32.0768L17.309 26.8363C18.285 26.2038 19.5409 26.4726 20.1669 27.4485C20.3953 27.804 20.512 28.2183 20.5302 28.6401C20.832 28.4701 21.1604 28.3777 21.4947 28.3777C21.6658 28.3777 21.8377 28.4007 22.0075 28.4463C22.5514 28.593 23.0097 28.9598 23.298 29.4784C23.5865 29.9979 23.6707 30.6066 23.5348 31.1929C23.4094 31.7353 23.1037 32.1918 22.6786 32.5051C22.9759 32.6943 23.2323 32.9525 23.4146 33.2812C23.7032 33.8007 23.7874 34.4091 23.6518 34.9961C23.5159 35.5822 23.176 36.0768 22.6947 36.3886L22.6919 36.3905C22.9839 36.5793 23.2358 36.8349 23.416 37.1587C23.7049 37.6781 23.7891 38.2869 23.6532 38.8738C23.517 39.4603 23.1771 39.9549 22.6964 40.2663L12.8119 46.6652C10.967 47.859 8.83433 48.2711 6.80751 47.8243C4.76254 47.3735 3.06894 46.1051 2.03916 44.2527C0.4095 41.3218 0.65373 37.8591 2.6753 35.2162C2.76787 35.0956 2.85905 34.9727 2.94184 34.8453C3.02952 34.7107 3.13188 34.5524 3.16681 34.4981C3.37605 34.0948 6.79047 27.4565 6.79011 27.4573C7.1349 26.7859 7.78116 26.4059 8.44767 26.4063C8.75858 26.4063 9.07402 26.4889 9.36503 26.663C9.71646 26.8749 10.0116 27.1836 10.2181 27.5557C10.6425 28.319 10.6576 29.2742 10.2579 30.0473L9.21363 32.0768ZM9.26218 28.1745C9.15389 27.9796 9.00508 27.8243 8.82307 27.7143C8.44684 27.4896 7.97315 27.6358 7.76602 28.0403C5.32282 32.79 4.48997 34.4086 4.16856 34.9846L4.1759 34.9865C4.149 35.083 4.149 35.083 3.85487 35.5365C3.75496 35.6899 3.64632 35.8373 3.53558 35.9824C1.79726 38.2551 1.59542 41.1151 2.99516 43.6335C3.8622 45.1933 5.29518 46.2628 7.03028 46.645C8.78425 47.0299 10.6329 46.6718 12.2375 45.6329L22.1229 39.2337C22.3486 39.0878 22.5079 38.856 22.5715 38.5812C22.635 38.3068 22.5956 38.0214 22.46 37.7779C22.1813 37.2766 21.5759 37.1118 21.1113 37.4138L16.2346 40.5708C15.9705 40.742 15.6275 40.65 15.4692 40.3646C15.3106 40.0796 15.3962 39.7098 15.6603 39.5387L20.5373 36.3817L22.1212 35.3564C22.3469 35.2101 22.5065 34.9783 22.5701 34.7042C22.6337 34.4294 22.5942 34.1437 22.4586 33.9006C22.1795 33.3988 21.5741 33.2356 21.1099 33.5364L14.649 37.7188C14.3842 37.8903 14.0422 37.7976 13.8836 37.5126C13.725 37.2276 13.811 36.8578 14.0747 36.6867L22.0042 31.5537C22.2298 31.4074 22.3891 31.176 22.4527 30.9012C22.5163 30.6267 22.4768 30.3414 22.3416 30.0979C22.2064 29.8548 21.9916 29.6829 21.7369 29.6143C21.4809 29.5456 21.2175 29.5882 20.9925 29.7337L19.5246 30.6841C19.5243 30.6841 19.5243 30.6844 19.5239 30.6844H19.5236L13.0631 34.8668C12.7983 35.0387 12.4559 34.9459 12.2977 34.6606C12.1391 34.3756 12.225 34.0058 12.4888 33.8347L18.9496 29.6523C19.1753 29.5061 19.3349 29.2742 19.3985 29.0002C19.4684 28.6994 19.4153 28.3918 19.2497 28.1339C18.9626 27.6858 18.3484 27.5666 17.8828 27.8686L8.00447 34.2633C7.78823 34.4028 7.51121 34.3689 7.3299 34.18C7.14826 33.9908 7.10738 33.6933 7.22965 33.4555L9.28374 29.462C9.48984 29.0628 9.4818 28.5697 9.26208 28.1747L9.26218 28.1745Z" fill="#4CAF4F"/>
<path d="M47.8969 44.2524C46.8674 46.1051 45.1743 47.3732 43.1289 47.8241C41.1018 48.27 38.9698 47.8587 37.1246 46.6649L27.2391 40.2657C26.7581 39.9544 26.4178 39.4598 26.2816 38.8724C26.1464 38.2863 26.231 37.6775 26.5191 37.1588C26.6991 36.8346 26.9513 36.579 27.2437 36.3902L27.2409 36.3883C26.7598 36.0769 26.4196 35.5823 26.2841 34.9958C26.1478 34.4092 26.2324 33.8 26.5209 33.2807C26.7068 32.9471 26.9614 32.6862 27.2521 32.5011C26.8301 32.1879 26.5262 31.7329 26.4011 31.1931C26.2649 30.6061 26.3494 29.9973 26.6379 29.4786C26.9261 28.9595 27.3848 28.5928 27.9284 28.4462C28.0982 28.4002 28.2704 28.3775 28.4409 28.3775C28.7755 28.3779 29.1039 28.4695 29.4057 28.6399C29.4242 28.2181 29.5406 27.8038 29.769 27.4483C30.3954 26.4732 31.6502 26.2033 32.6276 26.8361L40.7227 32.0758L39.6793 30.0478C39.2789 29.2735 39.2936 28.3183 39.718 27.5546C39.9248 27.1829 40.2204 26.8742 40.5736 26.6605C40.8638 26.487 41.1782 26.4049 41.4884 26.4049C42.1546 26.4053 42.8016 26.7845 43.146 27.4559C44.3463 29.7896 46.6113 34.191 46.7706 34.4982C46.8045 34.5514 46.9069 34.7097 46.9945 34.8443C47.078 34.972 47.1682 35.0942 47.2614 35.2156C49.2827 37.8595 49.5265 41.3219 47.8969 44.2524L47.8969 44.2524ZM46.4008 35.9827C46.2897 35.8376 46.1807 35.6894 46.0815 35.5368C45.7797 35.0746 45.772 35.0626 45.7493 34.9416C45.3965 34.3117 44.5357 32.6395 42.1697 28.0398C41.9622 27.6361 41.4906 27.4887 41.1151 27.7126C40.9303 27.8242 40.7818 27.9799 40.6735 28.1748C40.4541 28.5694 40.4458 29.0625 40.6529 29.4629L42.7063 33.4552C42.8289 33.6935 42.788 33.9905 42.6067 34.1797C42.4258 34.3693 42.1491 34.4025 41.9318 34.263L32.0535 27.8683C31.5878 27.5671 30.9741 27.6851 30.6862 28.1337C30.5206 28.3915 30.4679 28.6991 30.5371 28.9996C30.6006 29.274 30.7603 29.5054 30.9863 29.6517C30.987 29.6521 30.9873 29.6528 30.988 29.6532L37.4469 33.8344C37.711 34.0055 37.7966 34.3749 37.6379 34.6603C37.4794 34.9449 37.1373 35.038 36.8726 34.8665L28.9431 29.7335C28.7181 29.588 28.4533 29.545 28.199 29.614C27.944 29.6826 27.7295 29.8545 27.5943 30.0984C27.4588 30.3415 27.4196 30.6269 27.4825 30.9013C27.5461 31.1757 27.7058 31.4076 27.9314 31.5538L29.4744 32.5524L35.8605 36.6869C36.1246 36.858 36.2102 37.2275 36.0516 37.5128C35.893 37.7974 35.551 37.8902 35.2862 37.719L28.8261 33.5367C28.3615 33.2351 27.7564 33.3987 27.4769 33.9008C27.3414 34.1443 27.3023 34.4297 27.3652 34.7041C27.4287 34.9785 27.5884 35.21 27.8144 35.3566L29.3983 36.3819L34.2746 39.5389C34.5387 39.7101 34.6242 40.0795 34.4656 40.3649C34.3071 40.6495 33.9651 40.743 33.7003 40.5711L28.824 37.414C28.599 37.2685 28.3353 37.2255 28.0795 37.2945C27.8252 37.3631 27.61 37.535 27.4749 37.7782C27.3397 38.0217 27.3002 38.3074 27.3631 38.5815C27.4266 38.8559 27.5863 39.0873 27.8123 39.234L37.6978 45.6331C39.3019 46.6717 41.152 47.0312 42.9049 46.6452C44.6397 46.263 46.0727 45.1936 46.9397 43.6337C48.3409 41.1149 48.1393 38.2546 46.4014 35.9827L46.4008 35.9827Z" fill="#4CAF4F"/>
</svg>
